<?xml version="1.0" encoding="UTF-8"?>
<svg width="27px" height="30px" viewBox="0 0 27 30" version="1.1" xmlns="http://www.w3.org/2000/svg" xmlns:xlink="http://www.w3.org/1999/xlink">
    <!-- Generator: Sketch 63.1 (92452) - https://sketch.com -->
    <title>病害检查</title>
    <desc>Created with Sketch.</desc>
    <defs>
        <linearGradient x1="50%" y1="0%" x2="50%" y2="100%" id="linearGradient-1">
            <stop stop-color="#03D7F3" offset="0%"></stop>
            <stop stop-color="#0A7ADB" offset="100%"></stop>
        </linearGradient>
    </defs>
    <g id="页面-1" stroke="none" stroke-width="1" fill="none" fill-rule="evenodd">
        <g id="福建省长大桥梁集团型养护驾驶舱备份-2" transform="translate(-36.000000, -210.000000)" fill="url(#linearGradient-1)">
            <g id="编组-28" transform="translate(10.000000, 104.000000)">
                <g id="编组-8备份-3" transform="translate(26.000000, 87.000000)">
                    <g id="病害检查" transform="translate(0.000000, 19.000000)">
                        <path d="M25.7450866,6.66358197 L14.7610601,0.309316766 C14.0487937,-0.103066526 13.1678093,-0.103066526 12.4555428,0.309316766 L1.49017848,6.66358197 C0.77788273,7.07596527 0.328028691,7.84445249 0.328028691,8.66921614 L0.328028691,21.3402465 C0.328028691,22.1650131 0.77788273,22.9334974 1.49017848,23.3458807 L12.4742342,29.6813959 C13.18653,30.0937792 14.0674851,30.0937792 14.7797809,29.6813959 L25.7638366,23.3458807 C26.4761031,22.9334974 26.9259571,22.1650102 26.9259571,21.3402465 L26.9259571,8.66921614 C26.9072071,7.84444956 26.457353,7.07596527 25.7450866,6.66355268 L25.7450866,6.66358197 Z M20.9466337,11.4433434 L14.5735892,15.8669423 L14.5735892,23.6645197 C14.5735892,24.1893446 14.1612059,24.6017278 13.6363811,24.6017278 C13.1115563,24.6017278 12.699173,24.1893446 12.699173,23.6645197 L12.699173,15.8856923 L6.2886577,11.4433434 L6.28865762,11.4433433 C5.87013663,11.147843 5.76955155,10.5694458 6.06374555,10.150002 L6.06374556,10.150002 C6.36267364,9.72642141 6.94475049,9.61831288 7.37583693,9.90631058 L13.6363813,14.236218 L19.8969257,9.90631058 C20.328059,9.60642742 20.9091339,9.71886925 21.2090171,10.150002 C21.5089002,10.5811353 21.3777084,11.1621809 20.946605,11.4433433 L20.9466337,11.4433434 Z" id="形状"></path>
                    </g>
                </g>
            </g>
        </g>
    </g>
</svg>