<?xml version="1.0" encoding="UTF-8"?>
<svg width="30px" height="30px" viewBox="0 0 30 30" version="1.1" xmlns="http://www.w3.org/2000/svg" xmlns:xlink="http://www.w3.org/1999/xlink">
    <!-- Generator: Sketch 63.1 (92452) - https://sketch.com -->
    <title>返厂未修复</title>
    <desc>Created with Sketch.</desc>
    <defs>
        <linearGradient x1="50%" y1="0%" x2="50%" y2="100%" id="linearGradient-1">
            <stop stop-color="#03D7F3" offset="0%"></stop>
            <stop stop-color="#0A7ADB" offset="100%"></stop>
        </linearGradient>
    </defs>
    <g id="页面-1" stroke="none" stroke-width="1" fill="none" fill-rule="evenodd">
        <g id="福建省长大桥梁集团型养护驾驶舱备份-2" transform="translate(-217.000000, -317.000000)" fill="url(#linearGradient-1)">
            <g id="编组-28" transform="translate(10.000000, 104.000000)">
                <g id="编组-17" transform="translate(207.000000, 194.000000)">
                    <g id="返厂未修复" transform="translate(0.000000, 19.000000)">
                        <path d="M26.683742,0.00329587298 L25.0039451,0.00329587298 L25.0039452,0.00329587876 C24.1375008,-0.0496799641 23.392164,0.609765334 23.3391894,1.4762097 C23.2862135,2.34265407 23.9456588,3.08799087 24.8121032,3.14096555 C24.875991,3.14487173 24.9400574,3.14487176 25.0039452,3.14096556 L25.0039453,3.14096556 C25.8826914,3.15207609 26.6063514,3.83466656 26.6687275,4.71126524 L26.6687275,23.2523708 L26.6687275,23.2523697 C26.6189594,24.129194 25.8971671,24.8168598 25.0189629,24.8241342 L21.6743985,24.8241342 C20.1293674,24.8241342 19.9946016,27.9603391 14.9998888,27.9603391 C10.0051759,27.9603391 10.0055568,24.8241342 8.34040836,24.8241342 L4.99584392,24.8241342 L4.99584397,24.8241342 C4.10633415,24.8387942 3.36751297,24.1412526 3.33106176,23.2523697 L3.33106176,4.71126416 L3.33106176,4.71126415 C3.38997345,3.8327934 4.11543963,3.14786096 4.99584397,3.13949962 L4.99584399,3.13949963 C5.59214449,3.1588282 6.15522816,2.86527528 6.48081643,2.36533466 L6.48081649,2.36533456 C6.78074067,1.87734473 6.78074067,1.26215066 6.48081641,0.77416083 L6.4808165,0.774160976 C6.15509054,0.274587152 5.59188383,-0.0183350637 4.99584114,0.00182706912 L3.31604427,0.00182706912 L3.31604437,0.00182706974 C2.44820547,-0.00326549478 1.61122208,0.323457327 0.976343407,0.915149422 L0.976343414,0.915149415 C0.357135662,1.48176921 0.00357763364,2.28185608 0.00149755309,3.12118616 L0.00149755309,26.8774638 L0.00149755309,26.8774647 C0.056692664,28.653833 1.53956773,30.0502027 3.31603269,29.9986402 L26.6837454,29.9986402 L26.6837455,29.9986402 C28.4602251,30.0501887 29.9430852,28.6538183 29.9982806,26.8774647 L29.9982806,3.12449759 L29.9982806,3.12449653 C29.9430855,1.34812533 28.4602104,-0.0482415332 26.6837455,0.00332102675 L26.683742,0.00329587298 Z M5.42572897,6.03438688 L9.96012878,10.5691382 L9.96012874,10.5691384 C9.87404505,10.9384611 9.82497507,11.315442 9.81364566,11.6944942 L9.81364566,15.6195183 L6.48408124,15.6195183 L11.4784132,21.8933928 L15.8223831,16.4328591 L22.8363561,23.4468321 L24.6150271,21.6696259 L18.5660064,15.6206052 L21.4795577,15.6206052 L21.4795577,11.6944971 L21.4795578,11.6945286 C21.4719362,10.2196109 20.8527915,8.81395103 19.7697551,7.81271744 L19.7697551,7.8127175 C18.6483896,6.7733159 17.1741369,6.19856328 15.6451605,6.20469806 L15.6451604,6.20469805 C13.9211867,6.15174887 12.2672267,6.8880631 11.1528895,8.20456073 L7.20258218,4.2542534 L5.42572897,6.03438688 Z M13.1420954,15.6195152 L13.1420954,13.7518548 L15.0097557,15.6195152 L13.1420954,15.6195152 Z M13.8767095,10.0297236 L13.8767097,10.0297234 C14.3577357,9.5841584 14.9909444,9.33941788 15.6465916,9.34564641 L15.6465917,9.34564641 C16.9808198,9.30466091 18.0956492,10.3530411 18.1366356,11.6872692 C18.1366947,11.6891928 18.1367515,11.6911164 18.1368059,11.69304 L18.1368059,15.1877511 L13.4713317,10.522277 L13.4713317,10.522277 C13.581915,10.3398583 13.7177855,10.1740276 13.8748937,10.0297286 L13.8767095,10.0297236 Z" id="形状"></path>
                    </g>
                </g>
            </g>
        </g>
    </g>
</svg>