<?xml version="1.0" encoding="UTF-8"?>
<svg width="30px" height="30px" viewBox="0 0 30 30" version="1.1" xmlns="http://www.w3.org/2000/svg" xmlns:xlink="http://www.w3.org/1999/xlink">
    <!-- Generator: Sketch 63.1 (92452) - https://sketch.com -->
    <title>发现</title>
    <desc>Created with Sketch.</desc>
    <defs>
        <linearGradient x1="50%" y1="0%" x2="50%" y2="100%" id="linearGradient-1">
            <stop stop-color="#03D7F3" offset="0%"></stop>
            <stop stop-color="#0A7ADB" offset="100%"></stop>
        </linearGradient>
    </defs>
    <g id="页面-1" stroke="none" stroke-width="1" fill="none" fill-rule="evenodd">
        <g id="福建省长大桥梁集团型养护驾驶舱备份-2" transform="translate(-215.000000, -211.000000)" fill="url(#linearGradient-1)">
            <g id="编组-28" transform="translate(10.000000, 104.000000)">
                <g id="编组-8备份" transform="translate(205.000000, 87.000000)">
                    <g id="发现" transform="translate(0.000000, 20.000000)">
                        <path d="M15.0000175,0 C23.2845388,0 30.0000349,6.7154961 30.0000349,15.0000175 C30.0000349,23.2845388 23.2845388,30.0000349 15.0000175,30.0000349 C6.7154961,30.0000349 0,23.2845388 0,15.0000175 C0,6.7154961 6.7154961,0 15.0000175,0 Z M22.3710319,7.94702097 L22.3710319,7.94702097 C22.1783716,7.58141312 21.7262626,7.44054773 21.3600307,7.63202061 L12.5550205,12.2400142 L12.5550204,12.2400143 C12.4203205,12.3110845 12.3104495,12.4214788 12.24002,12.5565147 L7.62900882,21.3615249 L7.62900877,21.361525 C7.43840074,21.7292774 7.58200452,22.1819175 7.94975719,22.3725262 C8.16617082,22.4846946 8.42359661,22.4846946 8.64000995,22.372526 L17.4450202,17.7615148 L17.4450202,17.7615148 C17.5797201,17.6904446 17.6895911,17.5800503 17.7600206,17.4450144 L22.3710318,8.64149831 L22.3710318,8.64149828 C22.4851966,8.42354275 22.4851966,8.16345183 22.3710318,7.94549747 L22.3710319,7.94702097 Z M15.0000156,13.5000157 L15.0000156,13.5000157 C15.8284461,13.5000157 16.5000156,14.1715888 16.5000156,15.0000157 C16.5000156,15.8284462 15.8284461,16.5000157 15.0000156,16.5000157 L15.0000156,16.5000157 C14.1715887,16.5000157 13.5000156,15.8284462 13.5000156,15.0000157 C13.5000156,14.1715888 14.1715887,13.5000157 15.0000156,13.5000157 L15.0000156,13.5000157 Z" id="形状"></path>
                    </g>
                </g>
            </g>
        </g>
    </g>
</svg>