<?xml version="1.0" encoding="UTF-8"?>
<svg width="30px" height="30px" viewBox="0 0 30 30" version="1.1" xmlns="http://www.w3.org/2000/svg" xmlns:xlink="http://www.w3.org/1999/xlink">
    <!-- Generator: Sketch 63.1 (92452) - https://sketch.com -->
    <title>数据修复</title>
    <desc>Created with Sketch.</desc>
    <defs>
        <linearGradient x1="50%" y1="0%" x2="50%" y2="100%" id="linearGradient-1">
            <stop stop-color="#03D7F3" offset="0%"></stop>
            <stop stop-color="#0A7ADB" offset="100%"></stop>
        </linearGradient>
    </defs>
    <g id="页面-1" stroke="none" stroke-width="1" fill="none" fill-rule="evenodd">
        <g id="福建省长大桥梁集团型养护驾驶舱备份-2" transform="translate(-36.000000, -318.000000)" fill="url(#linearGradient-1)">
            <g id="编组-28" transform="translate(10.000000, 104.000000)">
                <g id="编组-8备份-5" transform="translate(26.000000, 194.000000)">
                    <g id="数据修复" transform="translate(0.000000, 20.000000)">
                        <path d="M19.4250226,15.4778793 C20.3207375,15.8507382 21.2957386,16.0607384 22.3243121,16.0607384 C26.5521784,16.0607384 29.9764597,12.567873 29.9764597,8.25645199 C29.9764597,7.80645147 29.9336024,7.36930936 29.8607454,6.9428782 L24.4328777,12.8657464 L19.3050105,11.9164592 L17.5500084,6.91717602 L23.3978765,0.535752577 L23.3978769,0.535752633 C23.0206411,0.477959793 22.6395118,0.449303607 22.2578756,0.450024314 C18.0964547,0.450024314 14.6721441,3.94290347 14.6721441,8.25218583 C14.6721441,9.36218712 14.8992871,10.4143299 15.306431,11.3679121 C12.9450005,15.6129171 9.40714677,19.1571985 8.01428382,20.4643387 L8.01428364,20.4643387 C7.57615129,20.3263933 7.11933045,20.2570027 6.65999886,20.2586243 L6.65142743,20.2586243 C4.0414244,20.2586243 1.92642194,22.4143406 1.92642194,25.0757685 C1.92642194,27.7350578 4.0414244,29.8929128 6.65142743,29.8929128 C9.25928887,29.8929128 11.3764329,27.7350519 11.3764329,25.0757685 C11.3764329,24.4329094 11.2478614,23.8221948 11.0271464,23.2607664 C14.8971509,18.1864832 20.185741,14.4236175 26.1343026,12.1650309 C25.7721606,12.2100309 25.5128742,12.2657451 25.3564433,12.3278883 C25.0093013,12.4671743 24.7285842,12.7200303 24.4350145,12.8550305 C23.5371551,13.2664587 23.4000133,13.0478879 22.752871,13.4164589 C21.9942978,13.8450316 20.8885827,14.5307463 19.4271444,15.4757474 L19.4250226,15.4778793 Z M6.65142376,27.6428935 L6.65142379,27.6428935 C5.25857549,27.6299532 4.13661227,26.4965142 4.13784758,25.1036044 L4.13784758,25.0821758 C4.13784758,23.667888 5.26284991,22.5193144 6.65142379,22.5193144 L6.65142379,22.5193144 C8.05375257,22.5344984 9.17825584,23.6836205 9.16307125,25.0859463 C9.16301526,25.0911176 9.16294347,25.0962886 9.16285588,25.1014594 C9.16285588,26.496461 8.04214071,27.6300346 6.65142522,27.6428935 L6.65142376,27.6428935 Z M7.10142428,9.42859496 L11.5800135,14.1128778 L13.725016,11.9207336 L9.24859475,7.24286683 L10.3221683,6.14786555 L4.31143861,0.0192744365 L0.0214336187,4.39714086 L6.03002459,10.525732 L7.10359811,9.4307307 L7.10142428,9.42859496 Z M21.0343018,16.5043258 C21.0343018,16.5043258 17.3485749,17.5264686 14.8200172,22.0114709 C14.719303,21.7543279 21.6000251,29.0786178 21.6000251,29.0786178 L21.6000251,29.0786178 C22.74588,30.2638623 24.6356244,30.295793 25.8208601,29.1499359 C25.8450327,29.1265666 25.8688089,29.1027904 25.8921782,29.0786178 L27.6107524,27.3300435 L27.6107524,27.3300435 C28.1821476,26.744413 28.5013843,25.9582421 28.5000438,25.140041 L28.5000438,25.1399419 C28.5007874,24.321439 28.1807385,23.535236 27.6085406,22.9499687 L21.0343142,16.5043258 L21.0343018,16.5043258 Z M23.9978893,27.8722004 L23.9978893,27.8722004 C23.7126194,28.1692505 23.2405554,28.1788013 22.9435052,27.8935312 C22.9362519,27.8865655 22.9291401,27.8794538 22.9221744,27.8722004 L17.4000293,22.2450552 L17.4000293,22.2450551 C17.1025397,21.9390079 17.1025397,21.4518179 17.4000294,21.1457677 L17.4000293,21.1457678 C17.687483,20.847534 18.1622763,20.8387948 18.46051,21.1262482 C18.4671357,21.1326344 18.4736433,21.139142 18.4800295,21.1457677 L23.9957586,26.7707742 C24.2957589,27.0750607 24.2957589,27.5700613 23.9957586,27.8722032 L23.9978893,27.8722004 Z M26.4278921,25.3971975 L26.4278921,25.3971975 C26.1432395,25.6948394 25.6711969,25.7053717 25.3735549,25.4207178 C25.3655409,25.4130535 25.3576989,25.4052115 25.3500347,25.3971975 L19.8300283,19.7700523 L19.8300282,19.7700523 C19.5325386,19.464005 19.5325386,18.976815 19.8300283,18.6707649 L19.8300283,18.6707649 C20.1174819,18.3725312 20.5922753,18.3637919 20.890509,18.6512453 C20.8971347,18.6576315 20.9036423,18.6641391 20.9100285,18.6707648 L26.4278962,24.2957714 L26.4278962,24.2957714 C26.7290685,24.6011506 26.7290685,25.0918211 26.4278962,25.3972004 L26.4278921,25.3971975 Z" id="形状"></path>
                    </g>
                </g>
            </g>
        </g>
    </g>
</svg>