<?xml version="1.0" standalone="no"?><!DOCTYPE svg PUBLIC "-//W3C//DTD SVG 1.1//EN" "http://www.w3.org/Graphics/SVG/1.1/DTD/svg11.dtd"><svg t="1604401454167" class="icon" viewBox="0 0 1024 1024" version="1.1" xmlns="http://www.w3.org/2000/svg" p-id="12910" xmlns:xlink="http://www.w3.org/1999/xlink" width="64" height="64"><defs><style type="text/css"></style></defs><path d="M936.974504 424.974504C936.974504 190.005666 746.968839 0 512 0S87.025496 190.005666 87.025496 424.974504c0 108.78187 42.062323 207.410765 108.781869 282.832861l2.90085 2.90085c8.70255 10.152975 17.405099 18.855524 27.558074 27.558074l285.733711 285.733711L797.733711 738.266289c10.152975-8.70255 18.855524-17.405099 27.558074-27.558074l2.90085-2.90085c66.719547-75.422096 108.78187-174.050992 108.781869-282.832861z m-424.974504 101.529745c-56.566572 0-102.98017-46.413598-102.98017-102.98017s46.413598-102.98017 102.98017-102.98017 102.98017 46.413598 102.98017 102.98017-46.413598 102.98017-102.98017 102.98017z" fill="#FB9B5E" p-id="12911"></path></svg>